Coordinates
version=1
nRows=5
nColumns=42
inDegrees=yes

Units are S.I. units (second, meters, Newtons, ...)
If the header above contains a line with 'inDegrees', this indicates whether rotational values are in degrees (yes) or radians (no).

endheader
time	pelvis_tilt	pelvis_list	pelvis_rotation	pelvis_tx	pelvis_ty	pelvis_tz	hip_flexion_r	hip_adduction_r	hip_rotation_r	knee_angle_r	knee_adduction_r	knee_angle_r_beta	ankle_angle_r	subtalar_angle_r	mtp_angle_r	hip_flexion_l	hip_adduction_l	hip_rotation_l	knee_angle_l	knee_adduction_l	knee_angle_l_beta	ankle_angle_l	subtalar_angle_l	mtp_angle_l	lumbar_extension	lumbar_bending	lumbar_rotation	arm_flex_r	arm_add_r	arm_rot_r	elbow_flex_r	pro_sup_r	wrist_flex_r	wrist_dev_r	arm_flex_l	arm_add_l	arm_rot_l	elbow_flex_l	pro_sup_l	wrist_flex_l	wrist_dev_l
      0.72000000	      9.29527840	     -1.17859944	     -2.66723854	     -1.91418249	      0.88709416	      0.20128471	     -7.77006549	      8.71759795	    -30.07577627	     13.40324341	    -12.45576710	      0.23393073	     21.11438146	     35.14559884	     -7.60296358	     18.05704963	     -0.06067150	     -9.60364470	     54.81697350	     -7.33217460	      0.95673667	     12.67006463	    -11.12542118	     -7.60296358	    -29.11592758	     -0.54291506	      7.26164411	     18.40173975	    -18.47991165	     15.30328980	     44.72930496	     90.00000001	      0.00000000	      0.00000000	      1.83689230	    -12.85076470	     15.04532874	     30.36274420	     90.00000001	      0.00000000	      0.00000000
      0.73000000	      9.35859813	     -1.19789535	     -2.92604570	     -1.90230665	      0.88625696	      0.20289010	     -9.05302650	      8.84232879	    -29.89980205	     12.81273094	    -12.35309636	      0.22362434	     21.55792600	     35.41276414	     -7.60002877	     18.65757019	      0.06924917	     -9.90795490	     51.47059811	     -7.25659806	      0.89833140	     12.74555214	    -10.37508626	     -7.60002877	    -29.20044561	     -0.68418450	      7.58825506	     19.03412131	    -18.77029902	     15.34944798	     45.75471779	     90.00000001	      0.00000000	      0.00000000	      0.87522070	    -12.64757621	     15.17652391	     30.04930507	     90.00000001	      0.00000000	      0.00000000
      0.74000000	      9.63818567	     -1.21765525	     -3.15122699	     -1.89018672	      0.88560832	      0.20407223	    -10.57569829	      8.76929024	    -29.86953457	     12.38355147	    -12.01285301	      0.21613375	     21.87080271	     35.77640447	     -7.59645925	     18.78957076	      0.31752626	    -10.66900534	     47.65226367	     -7.61537337	      0.83168890	     12.84960608	     -9.13367221	     -7.59645925	    -29.50864128	     -0.77328638	      7.90538205	     19.69617645	    -19.14233581	     15.42852081	     46.68553432	     90.00000001	      0.00000000	      0.00000000	     -0.08176010	    -12.42217456	     15.32833143	     29.88021110	     90.00000001	      0.00000000	      0.00000000
      0.75000000	      9.74093290	     -1.32162694	     -3.35684892	     -1.87812102	      0.88430089	      0.20533225	    -11.74137780	      8.87861412	    -29.90106489	     12.14287063	    -11.95676270	      0.21193307	     22.23979146	     36.04263257	     -7.58914348	     19.13182537	      0.38628096	    -11.95533991	     43.79768614	     -8.25388985	      0.76441383	     13.29721070	     -6.71379322	     -7.58914348	    -29.62111422	     -0.77491533	      8.18357425	     20.37206305	    -19.42058505	     15.54213846	     47.49785471	     90.00000001	      0.00000000	      0.00000000	     -1.10195502	    -12.23605650	     15.49865610	     29.78581399	     90.00000001	      0.00000000	      0.00000000
      0.76000000	      9.44027226	     -1.59386100	     -3.35290784	     -1.86662173	      0.88204050	      0.20645704	    -12.27526385	      9.42146419	    -29.77915369	     12.06209505	    -12.22065525	      0.21052327	     22.66807229	     35.71584716	     -7.58714407	     20.02326175	      0.27294864	    -12.17219803	     40.24156173	     -8.20896496	      0.70234775	     13.32577846	     -5.90757086	     -7.58714407	    -29.35750849	     -0.50313183	      8.37868465	     20.99529924	    -19.64480815	     15.50157628	     48.24865151	     90.00000001	      0.00000000	      0.00000000	     -2.01293752	    -12.00719537	     15.53336400	     29.53818184	     90.00000001	      0.00000000	      0.00000000
